<svg width="310" height="44" viewBox="0 0 310 44" fill="none" xmlns="http://www.w3.org/2000/svg">
<path d="M0 42.88V0.639999H24.192C29.5253 0.682666 33.4933 1.64267 36.096 3.52C38.6987 5.35467 40 8.14933 40 11.904C40 14.4213 39.232 16.5547 37.696 18.304C36.16 20.0533 33.7493 21.1627 30.464 21.632V21.696C34.1333 22.08 36.8213 23.168 38.528 24.96C40.2347 26.752 41.088 29.0133 41.088 31.744C41.088 35.456 39.8293 38.2507 37.312 40.128C34.8373 41.9627 31.0187 42.88 25.856 42.88H0ZM14.272 33.152H21.888C23.2107 33.152 24.192 32.896 24.832 32.384C25.5147 31.8293 25.856 31.04 25.856 30.016C25.856 29.0347 25.5147 28.288 24.832 27.776C24.192 27.264 23.2107 27.008 21.888 27.008H14.272V33.152ZM14.272 17.024H20.928C23.488 17.024 24.768 16 24.768 13.952C24.768 11.904 23.488 10.88 20.928 10.88H14.272V17.024Z" fill="#3B95BC"/>
<path d="M64.044 0.639999C69.548 0.639999 73.772 1.87733 76.716 4.352C79.66 6.784 81.132 10.0267 81.132 14.08C81.132 18.7307 79.6813 22.2293 76.78 24.576C73.9213 26.9227 69.74 28.096 64.236 28.096L62.764 28.864H55.724V42.88H41.132V0.639999H64.044ZM61.484 19.072C63.0627 19.072 64.236 18.7947 65.004 18.24C65.8147 17.6427 66.22 16.6187 66.22 15.168C66.22 13.76 65.8147 12.7573 65.004 12.16C64.236 11.5627 63.0627 11.264 61.484 11.264H55.724V19.072H61.484ZM70.316 22.208L83.5 42.88H67.308L57.452 24.384L70.316 22.208Z" fill="#3B95BC"/>
<path d="M83.5 42.88V0.639999H118.572V11.584H98.412V16.832H114.668V26.944H98.412V31.936H119.34V42.88H83.5Z" fill="#3B95BC"/>
<path d="M130.54 42.88L118.572 0.639999H134.636L139.564 31.168L145.516 0.639999H158.316L164.588 30.976L169.388 0.639999H184.876L172.844 42.88H157.036L153.708 27.008L152.044 16.192H151.852L150.188 27.008L146.924 42.88H130.54Z" fill="#3B95BC"/>
<path d="M184.876 42.88V0.639999H209.068C214.401 0.682666 218.369 1.64267 220.972 3.52C223.575 5.35467 224.876 8.14933 224.876 11.904C224.876 14.4213 224.108 16.5547 222.572 18.304C221.036 20.0533 218.625 21.1627 215.34 21.632V21.696C219.009 22.08 221.697 23.168 223.404 24.96C225.111 26.752 225.964 29.0133 225.964 31.744C225.964 35.456 224.705 38.2507 222.188 40.128C219.713 41.9627 215.895 42.88 210.732 42.88H184.876ZM199.148 33.152H206.764C208.087 33.152 209.068 32.896 209.708 32.384C210.391 31.8293 210.732 31.04 210.732 30.016C210.732 29.0347 210.391 28.288 209.708 27.776C209.068 27.264 208.087 27.008 206.764 27.008H199.148V33.152ZM199.148 17.024H205.804C208.364 17.024 209.644 16 209.644 13.952C209.644 11.904 208.364 10.88 205.804 10.88H199.148V17.024Z" fill="#3B95BC"/>
<path d="M247.468 0C251.948 0 255.788 0.853333 258.988 2.56C262.188 4.26667 264.641 6.74133 266.348 9.984C268.055 13.2267 268.908 17.152 268.908 21.76C268.908 26.368 268.055 30.2933 266.348 33.536C264.641 36.7787 262.188 39.2533 258.988 40.96C255.788 42.6667 251.948 43.52 247.468 43.52C243.031 43.52 239.191 42.6667 235.948 40.96C232.748 39.2533 230.273 36.7787 228.524 33.536C226.817 30.2933 225.964 26.368 225.964 21.76C225.964 17.152 226.817 13.2267 228.524 9.984C230.273 6.74133 232.748 4.26667 235.948 2.56C239.191 0.853333 243.031 0 247.468 0ZM247.468 11.2C246.017 11.2 244.823 11.584 243.884 12.352C242.988 13.0773 242.305 14.208 241.836 15.744C241.409 17.28 241.196 19.2853 241.196 21.76C241.196 24.192 241.409 26.1973 241.836 27.776C242.305 29.312 242.988 30.464 243.884 31.232C244.823 31.9573 246.017 32.32 247.468 32.32C248.919 32.32 250.092 31.9573 250.988 31.232C251.927 30.464 252.609 29.312 253.036 27.776C253.463 26.1973 253.676 24.192 253.676 21.76C253.676 19.2853 253.463 17.28 253.036 15.744C252.609 14.208 251.927 13.0773 250.988 12.352C250.092 11.584 248.919 11.2 247.468 11.2Z" fill="#3B95BC"/>
<path d="M309.5 42.88H291.516L285.948 31.936L280.828 42.88H263.996L278.012 21.824L264.508 0.639999H282.108L287.036 11.2L292.028 0.639999H308.284L294.844 21.44L309.5 42.88Z" fill="#3B95BC"/>
<mask id="mask0_3_128" style="mask-type:alpha" maskUnits="userSpaceOnUse" x="0" y="0" width="310" height="44">
<path d="M0 42.88V0.639999H24.192C29.5253 0.682666 33.4933 1.64267 36.096 3.52C38.6987 5.35467 40 8.14933 40 11.904C40 14.4213 39.232 16.5547 37.696 18.304C36.16 20.0533 33.7493 21.1627 30.464 21.632V21.696C34.1333 22.08 36.8213 23.168 38.528 24.96C40.2347 26.752 41.088 29.0133 41.088 31.744C41.088 35.456 39.8293 38.2507 37.312 40.128C34.8373 41.9627 31.0187 42.88 25.856 42.88H0ZM14.272 33.152H21.888C23.2107 33.152 24.192 32.896 24.832 32.384C25.5147 31.8293 25.856 31.04 25.856 30.016C25.856 29.0347 25.5147 28.288 24.832 27.776C24.192 27.264 23.2107 27.008 21.888 27.008H14.272V33.152ZM14.272 17.024H20.928C23.488 17.024 24.768 16 24.768 13.952C24.768 11.904 23.488 10.88 20.928 10.88H14.272V17.024Z" fill="#3B95BC"/>
<path d="M64.044 0.639999C69.548 0.639999 73.772 1.87733 76.716 4.352C79.66 6.784 81.132 10.0267 81.132 14.08C81.132 18.7307 79.6813 22.2293 76.78 24.576C73.9213 26.9227 69.74 28.096 64.236 28.096L62.764 28.864H55.724V42.88H41.132V0.639999H64.044ZM61.484 19.072C63.0627 19.072 64.236 18.7947 65.004 18.24C65.8147 17.6427 66.22 16.6187 66.22 15.168C66.22 13.76 65.8147 12.7573 65.004 12.16C64.236 11.5627 63.0627 11.264 61.484 11.264H55.724V19.072H61.484ZM70.316 22.208L83.5 42.88H67.308L57.452 24.384L70.316 22.208Z" fill="#3B95BC"/>
<path d="M83.5 42.88V0.639999H118.572V11.584H98.412V16.832H114.668V26.944H98.412V31.936H119.34V42.88H83.5Z" fill="#3B95BC"/>
<path d="M130.54 42.88L118.572 0.639999H134.636L139.564 31.168L145.516 0.639999H158.316L164.588 30.976L169.388 0.639999H184.876L172.844 42.88H157.036L153.708 27.008L152.044 16.192H151.852L150.188 27.008L146.924 42.88H130.54Z" fill="#3B95BC"/>
<path d="M184.876 42.88V0.639999H209.068C214.401 0.682666 218.369 1.64267 220.972 3.52C223.575 5.35467 224.876 8.14933 224.876 11.904C224.876 14.4213 224.108 16.5547 222.572 18.304C221.036 20.0533 218.625 21.1627 215.34 21.632V21.696C219.009 22.08 221.697 23.168 223.404 24.96C225.111 26.752 225.964 29.0133 225.964 31.744C225.964 35.456 224.705 38.2507 222.188 40.128C219.713 41.9627 215.895 42.88 210.732 42.88H184.876ZM199.148 33.152H206.764C208.087 33.152 209.068 32.896 209.708 32.384C210.391 31.8293 210.732 31.04 210.732 30.016C210.732 29.0347 210.391 28.288 209.708 27.776C209.068 27.264 208.087 27.008 206.764 27.008H199.148V33.152ZM199.148 17.024H205.804C208.364 17.024 209.644 16 209.644 13.952C209.644 11.904 208.364 10.88 205.804 10.88H199.148V17.024Z" fill="#3B95BC"/>
<path d="M247.468 0C251.948 0 255.788 0.853333 258.988 2.56C262.188 4.26667 264.641 6.74133 266.348 9.984C268.055 13.2267 268.908 17.152 268.908 21.76C268.908 26.368 268.055 30.2933 266.348 33.536C264.641 36.7787 262.188 39.2533 258.988 40.96C255.788 42.6667 251.948 43.52 247.468 43.52C243.031 43.52 239.191 42.6667 235.948 40.96C232.748 39.2533 230.273 36.7787 228.524 33.536C226.817 30.2933 225.964 26.368 225.964 21.76C225.964 17.152 226.817 13.2267 228.524 9.984C230.273 6.74133 232.748 4.26667 235.948 2.56C239.191 0.853333 243.031 0 247.468 0ZM247.468 11.2C246.017 11.2 244.823 11.584 243.884 12.352C242.988 13.0773 242.305 14.208 241.836 15.744C241.409 17.28 241.196 19.2853 241.196 21.76C241.196 24.192 241.409 26.1973 241.836 27.776C242.305 29.312 242.988 30.464 243.884 31.232C244.823 31.9573 246.017 32.32 247.468 32.32C248.919 32.32 250.092 31.9573 250.988 31.232C251.927 30.464 252.609 29.312 253.036 27.776C253.463 26.1973 253.676 24.192 253.676 21.76C253.676 19.2853 253.463 17.28 253.036 15.744C252.609 14.208 251.927 13.0773 250.988 12.352C250.092 11.584 248.919 11.2 247.468 11.2Z" fill="#3B95BC"/>
<path d="M309.5 42.88H291.516L285.948 31.936L280.828 42.88H263.996L278.012 21.824L264.508 0.639999H282.108L287.036 11.2L292.028 0.639999H308.284L294.844 21.44L309.5 42.88Z" fill="#3B95BC"/>
</mask>
<g mask="url(#mask0_3_128)">
<circle cx="11" cy="44" r="16" fill="white" fill-opacity="0.6"/>
<circle cx="30" cy="38" r="9" fill="white" fill-opacity="0.6"/>
<circle cx="46" cy="44" r="12" fill="white" fill-opacity="0.6"/>
<circle cx="85" cy="39" r="11" fill="white" fill-opacity="0.6"/>
<circle cx="59" cy="36" r="14" fill="white" fill-opacity="0.6"/>
<circle cx="125" cy="37" r="18" fill="white" fill-opacity="0.6"/>
<circle cx="218" cy="49" r="18" fill="white" fill-opacity="0.6"/>
<circle cx="240" cy="36" r="15" fill="white" fill-opacity="0.6"/>
<circle cx="150" cy="40" r="12" fill="white" fill-opacity="0.6"/>
<circle cx="269" cy="38" r="11" fill="white" fill-opacity="0.6"/>
<circle cx="301" cy="44" r="10" fill="white" fill-opacity="0.6"/>
<circle cx="299" cy="34" r="6" fill="white" fill-opacity="0.6"/>
<circle cx="282" cy="46" r="12" fill="white" fill-opacity="0.6"/>
<circle cx="97" cy="34" r="8" fill="white" fill-opacity="0.6"/>
<circle cx="91" cy="25" r="5" fill="white" fill-opacity="0.6"/>
<circle cx="48" cy="22" r="2" fill="white" fill-opacity="0.6"/>
<circle cx="214" cy="28" r="3" fill="white" fill-opacity="0.6"/>
<circle cx="142" cy="21" r="3" fill="white" fill-opacity="0.6"/>
<circle cx="256" cy="32" r="4" fill="white" fill-opacity="0.6"/>
<circle cx="261" cy="24" r="2" fill="white" fill-opacity="0.6"/>
<circle cx="40" cy="26" r="5" fill="white" fill-opacity="0.6"/>
<circle cx="3" cy="31" r="6" fill="white" fill-opacity="0.6"/>
<circle cx="195" cy="39" r="11" fill="white" fill-opacity="0.6"/>
<circle cx="188" cy="30" r="8" fill="white" fill-opacity="0.6"/>
<circle cx="200" cy="21" r="5" fill="white" fill-opacity="0.6"/>
<circle cx="166" cy="29" r="6" fill="white" fill-opacity="0.6"/>
<circle cx="175" cy="41" r="8" fill="white" fill-opacity="0.6"/>
</g>
</svg>
